<svg width="436" height="119" viewBox="0 0 436 119" fill="none" xmlns="http://www.w3.org/2000/svg">
<path d="M79.568 36.654C79.568 33.2567 80.2703 30.235 81.675 27.589C83.1123 24.9103 85.1377 22.836 87.751 21.366C90.3643 19.8633 93.3697 19.112 96.767 19.112C101.079 19.112 104.705 20.2717 107.645 22.591C110.585 24.8777 112.48 27.9973 113.329 31.95H102.99C102.369 30.6433 101.504 29.647 100.393 28.961C99.315 28.275 98.0573 27.932 96.62 27.932C94.3987 27.932 92.6183 28.7323 91.279 30.333C89.9723 31.901 89.319 34.008 89.319 36.654C89.319 39.3327 89.9723 41.4723 91.279 43.073C92.6183 44.641 94.3987 45.425 96.62 45.425C98.0573 45.425 99.315 45.082 100.393 44.396C101.504 43.71 102.369 42.7137 102.99 41.407H113.329C112.48 45.3597 110.585 48.4957 107.645 50.815C104.705 53.1017 101.079 54.245 96.767 54.245C93.3697 54.245 90.3643 53.51 87.751 52.04C85.1377 50.5373 83.1123 48.463 81.675 45.817C80.2703 43.1383 79.568 40.084 79.568 36.654ZM148.796 19.455V54H139.192V40.133H127.481V54H117.877V19.455H127.481V32.44H139.192V19.455H148.796ZM176.146 48.365H163.896L162.034 54H151.94L164.533 19.455H175.607L188.151 54H178.008L176.146 48.365ZM173.745 41.015L170.021 29.843L166.346 41.015H173.745ZM223.278 54H213.674L200.885 34.694V54H191.281V19.455H200.885L213.674 39.006V19.455H223.278V54ZM227.573 36.654C227.573 33.2567 228.275 30.235 229.68 27.589C231.117 24.9103 233.143 22.836 235.756 21.366C238.369 19.8633 241.375 19.112 244.772 19.112C249.084 19.112 252.71 20.2717 255.65 22.591C258.59 24.8777 260.485 27.9973 261.334 31.95H250.995C250.374 30.6433 249.509 29.647 248.398 28.961C247.32 28.275 246.062 27.932 244.625 27.932C242.404 27.932 240.623 28.7323 239.284 30.333C237.977 31.901 237.324 34.008 237.324 36.654C237.324 39.3327 237.977 41.4723 239.284 43.073C240.623 44.641 242.404 45.425 244.625 45.425C246.062 45.425 247.32 45.082 248.398 44.396C249.509 43.71 250.374 42.7137 250.995 41.407H261.334C260.485 45.3597 258.59 48.4957 255.65 50.815C252.71 53.1017 249.084 54.245 244.772 54.245C241.375 54.245 238.369 53.51 235.756 52.04C233.143 50.5373 231.117 48.463 229.68 45.817C228.275 43.1383 227.573 40.084 227.573 36.654ZM275.486 27.148V32.783H286.511V40.084H275.486V46.307H287.981V54H265.882V19.455H287.981V27.148H275.486Z" fill="#13043F"/>
<path d="M308.484 41.794C309.345 41.93 310.127 42.2813 310.83 42.848C311.555 43.4147 312.122 44.1173 312.53 44.956C312.961 45.7947 313.176 46.69 313.176 47.642C313.176 48.8433 312.87 49.9313 312.258 50.906C311.646 51.858 310.751 52.6173 309.572 53.184C308.416 53.728 307.045 54 305.458 54H296.618V30.302H305.118C306.727 30.302 308.099 30.574 309.232 31.118C310.365 31.6393 311.215 32.3533 311.782 33.26C312.349 34.1667 312.632 35.1867 312.632 36.32C312.632 37.7253 312.247 38.8927 311.476 39.822C310.728 40.7287 309.731 41.386 308.484 41.794ZM299.712 40.536H304.914C306.365 40.536 307.487 40.196 308.28 39.516C309.073 38.836 309.47 37.8953 309.47 36.694C309.47 35.4927 309.073 34.552 308.28 33.872C307.487 33.192 306.342 32.852 304.846 32.852H299.712V40.536ZM305.186 51.45C306.727 51.45 307.929 51.0873 308.79 50.362C309.651 49.6367 310.082 48.628 310.082 47.336C310.082 46.0213 309.629 44.99 308.722 44.242C307.815 43.4713 306.603 43.086 305.084 43.086H299.712V51.45H305.186ZM328.214 54.238C326.015 54.238 324.009 53.728 322.196 52.708C320.382 51.6653 318.943 50.226 317.878 48.39C316.835 46.5313 316.314 44.446 316.314 42.134C316.314 39.822 316.835 37.748 317.878 35.912C318.943 34.0533 320.382 32.614 322.196 31.594C324.009 30.5513 326.015 30.03 328.214 30.03C330.435 30.03 332.452 30.5513 334.266 31.594C336.079 32.614 337.507 34.042 338.55 35.878C339.592 37.714 340.114 39.7993 340.114 42.134C340.114 44.4687 339.592 46.554 338.55 48.39C337.507 50.226 336.079 51.6653 334.266 52.708C332.452 53.728 330.435 54.238 328.214 54.238ZM328.214 51.552C329.868 51.552 331.353 51.1667 332.668 50.396C334.005 49.6253 335.048 48.526 335.796 47.098C336.566 45.67 336.952 44.0153 336.952 42.134C336.952 40.23 336.566 38.5753 335.796 37.17C335.048 35.742 334.016 34.6427 332.702 33.872C331.387 33.1013 329.891 32.716 328.214 32.716C326.536 32.716 325.04 33.1013 323.726 33.872C322.411 34.6427 321.368 35.742 320.598 37.17C319.85 38.5753 319.476 40.23 319.476 42.134C319.476 44.0153 319.85 45.67 320.598 47.098C321.368 48.526 322.411 49.6253 323.726 50.396C325.063 51.1667 326.559 51.552 328.214 51.552ZM358.784 30.302V32.818H352.324V54H349.23V32.818H342.736V30.302H358.784Z" fill="#13043F"/>
<path d="M19.7642 86.06V107H15.5642V98.09H6.59422V107H2.39422V86.06H6.59422V94.67H15.5642V86.06H19.7642ZM33.6181 107.21C31.6581 107.21 29.8581 106.75 28.2181 105.83C26.5781 104.91 25.2781 103.64 24.3181 102.02C23.3581 100.38 22.8781 98.53 22.8781 96.47C22.8781 94.43 23.3581 92.6 24.3181 90.98C25.2781 89.34 26.5781 88.06 28.2181 87.14C29.8581 86.22 31.6581 85.76 33.6181 85.76C35.5981 85.76 37.3981 86.22 39.0181 87.14C40.6581 88.06 41.9481 89.34 42.8881 90.98C43.8481 92.6 44.3281 94.43 44.3281 96.47C44.3281 98.53 43.8481 100.38 42.8881 102.02C41.9481 103.64 40.6581 104.91 39.0181 105.83C37.3781 106.75 35.5781 107.21 33.6181 107.21ZM33.6181 103.46C34.8781 103.46 35.9881 103.18 36.9481 102.62C37.9081 102.04 38.6581 101.22 39.1981 100.16C39.7381 99.1 40.0081 97.87 40.0081 96.47C40.0081 95.07 39.7381 93.85 39.1981 92.81C38.6581 91.75 37.9081 90.94 36.9481 90.38C35.9881 89.82 34.8781 89.54 33.6181 89.54C32.3581 89.54 31.2381 89.82 30.2581 90.38C29.2981 90.94 28.5481 91.75 28.0081 92.81C27.4681 93.85 27.1981 95.07 27.1981 96.47C27.1981 97.87 27.4681 99.1 28.0081 100.16C28.5481 101.22 29.2981 102.04 30.2581 102.62C31.2381 103.18 32.3581 103.46 33.6181 103.46ZM75.4428 86.06L69.5928 107H64.6428L60.7128 92.09L56.6028 107L51.6828 107.03L46.0428 86.06H50.5428L54.2328 102.32L58.4928 86.06H63.1728L67.1928 102.23L70.9128 86.06H75.4428ZM84.3137 96.5C84.3137 94.44 84.7737 92.6 85.6937 90.98C86.6337 89.34 87.9037 88.07 89.5037 87.17C91.1237 86.25 92.9337 85.79 94.9337 85.79C97.2737 85.79 99.3237 86.39 101.084 87.59C102.844 88.79 104.074 90.45 104.774 92.57H99.9437C99.4637 91.57 98.7837 90.82 97.9037 90.32C97.0437 89.82 96.0437 89.57 94.9037 89.57C93.6837 89.57 92.5937 89.86 91.6337 90.44C90.6937 91 89.9537 91.8 89.4137 92.84C88.8937 93.88 88.6337 95.1 88.6337 96.5C88.6337 97.88 88.8937 99.1 89.4137 100.16C89.9537 101.2 90.6937 102.01 91.6337 102.59C92.5937 103.15 93.6837 103.43 94.9037 103.43C96.0437 103.43 97.0437 103.18 97.9037 102.68C98.7837 102.16 99.4637 101.4 99.9437 100.4H104.774C104.074 102.54 102.844 104.21 101.084 105.41C99.3437 106.59 97.2937 107.18 94.9337 107.18C92.9337 107.18 91.1237 106.73 89.5037 105.83C87.9037 104.91 86.6337 103.64 85.6937 102.02C84.7737 100.4 84.3137 98.56 84.3137 96.5ZM121.201 103.01H112.861L111.481 107H107.071L114.601 86.03H119.491L127.021 107H122.581L121.201 103.01ZM120.061 99.65L117.031 90.89L114.001 99.65H120.061ZM147.746 107H143.546L134.036 92.63V107H129.836V86.03H134.036L143.546 100.43V86.03H147.746V107ZM163.245 86.06V107H159.045V86.06H163.245ZM191.913 86.06V107H187.713V98.09H178.743V107H174.543V86.06H178.743V94.67H187.713V86.06H191.913ZM200.247 89.45V94.7H207.297V98.03H200.247V103.58H208.197V107H196.047V86.03H208.197V89.45H200.247ZM216.213 103.67H223.113V107H212.013V86.06H216.213V103.67ZM241.053 92.54C241.053 93.66 240.783 94.71 240.243 95.69C239.723 96.67 238.893 97.46 237.753 98.06C236.633 98.66 235.213 98.96 233.493 98.96H229.983V107H225.783V86.06H233.493C235.113 86.06 236.493 86.34 237.633 86.9C238.773 87.46 239.623 88.23 240.183 89.21C240.763 90.19 241.053 91.3 241.053 92.54ZM233.313 95.57C234.473 95.57 235.333 95.31 235.893 94.79C236.453 94.25 236.733 93.5 236.733 92.54C236.733 90.5 235.593 89.48 233.313 89.48H229.983V95.57H233.313ZM267.833 86.06L260.753 99.71V107H256.553V99.71L249.443 86.06H254.183L258.683 95.63L263.153 86.06H267.833ZM279.976 107.21C278.016 107.21 276.216 106.75 274.576 105.83C272.936 104.91 271.636 103.64 270.676 102.02C269.716 100.38 269.236 98.53 269.236 96.47C269.236 94.43 269.716 92.6 270.676 90.98C271.636 89.34 272.936 88.06 274.576 87.14C276.216 86.22 278.016 85.76 279.976 85.76C281.956 85.76 283.756 86.22 285.376 87.14C287.016 88.06 288.306 89.34 289.246 90.98C290.206 92.6 290.686 94.43 290.686 96.47C290.686 98.53 290.206 100.38 289.246 102.02C288.306 103.64 287.016 104.91 285.376 105.83C283.736 106.75 281.936 107.21 279.976 107.21ZM279.976 103.46C281.236 103.46 282.346 103.18 283.306 102.62C284.266 102.04 285.016 101.22 285.556 100.16C286.096 99.1 286.366 97.87 286.366 96.47C286.366 95.07 286.096 93.85 285.556 92.81C285.016 91.75 284.266 90.94 283.306 90.38C282.346 89.82 281.236 89.54 279.976 89.54C278.716 89.54 277.596 89.82 276.616 90.38C275.656 90.94 274.906 91.75 274.366 92.81C273.826 93.85 273.556 95.07 273.556 96.47C273.556 97.87 273.826 99.1 274.366 100.16C274.906 101.22 275.656 102.04 276.616 102.62C277.596 103.18 278.716 103.46 279.976 103.46ZM297.95 86.06V99.02C297.95 100.44 298.32 101.53 299.06 102.29C299.8 103.03 300.84 103.4 302.18 103.4C303.54 103.4 304.59 103.03 305.33 102.29C306.07 101.53 306.44 100.44 306.44 99.02V86.06H310.67V98.99C310.67 100.77 310.28 102.28 309.5 103.52C308.74 104.74 307.71 105.66 306.41 106.28C305.13 106.9 303.7 107.21 302.12 107.21C300.56 107.21 299.14 106.9 297.86 106.28C296.6 105.66 295.6 104.74 294.86 103.52C294.12 102.28 293.75 100.77 293.75 98.99V86.06H297.95ZM332.677 107L328.057 98.84H326.077V107H321.877V86.06H329.737C331.357 86.06 332.737 86.35 333.877 86.93C335.017 87.49 335.867 88.26 336.427 89.24C337.007 90.2 337.297 91.28 337.297 92.48C337.297 93.86 336.897 95.11 336.097 96.23C335.297 97.33 334.107 98.09 332.527 98.51L337.537 107H332.677ZM326.077 95.69H329.587C330.727 95.69 331.577 95.42 332.137 94.88C332.697 94.32 332.977 93.55 332.977 92.57C332.977 91.61 332.697 90.87 332.137 90.35C331.577 89.81 330.727 89.54 329.587 89.54H326.077V95.69ZM353.935 103.01H345.595L344.215 107H339.805L347.335 86.03H352.225L359.755 107H355.315L353.935 103.01ZM352.795 99.65L349.765 90.89L346.735 99.65H352.795ZM380.48 107H376.28L366.77 92.63V107H362.57V86.03H366.77L376.28 100.43V86.03H380.48V107ZM388.831 86.06V107H384.631V86.06H388.831ZM405.82 103.01H397.48L396.1 107H391.69L399.22 86.03H404.11L411.64 107H407.2L405.82 103.01ZM404.68 99.65L401.65 90.89L398.62 99.65H404.68ZM427.453 85.34C429.533 85.34 431.203 85.91 432.463 87.05C433.743 88.17 434.383 89.72 434.383 91.7C434.383 93.66 433.753 95.16 432.493 96.2C431.233 97.22 429.563 97.73 427.483 97.73L427.363 100.04H423.673L423.523 94.94H424.873C426.613 94.94 427.953 94.71 428.893 94.25C429.833 93.79 430.303 92.95 430.303 91.73C430.303 90.85 430.043 90.15 429.523 89.63C429.023 89.11 428.333 88.85 427.453 88.85C426.533 88.85 425.813 89.1 425.293 89.6C424.793 90.1 424.543 90.79 424.543 91.67H420.583C420.563 90.45 420.823 89.36 421.363 88.4C421.903 87.44 422.693 86.69 423.733 86.15C424.793 85.61 426.033 85.34 427.453 85.34ZM425.503 107.21C424.743 107.21 424.113 106.98 423.613 106.52C423.133 106.04 422.893 105.45 422.893 104.75C422.893 104.05 423.133 103.47 423.613 103.01C424.113 102.53 424.743 102.29 425.503 102.29C426.243 102.29 426.853 102.53 427.333 103.01C427.813 103.47 428.053 104.05 428.053 104.75C428.053 105.45 427.813 106.04 427.333 106.52C426.853 106.98 426.243 107.21 425.503 107.21Z" fill="#1D1D1D"/>
</svg>
