<svg width="36" height="34" viewBox="0 0 36 34" fill="none" xmlns="http://www.w3.org/2000/svg">
<path fill-rule="evenodd" clip-rule="evenodd" d="M13.4652 3.58726L24.7412 8.66047C28.1689 10.2026 30.8666 11.4163 32.6966 12.5656C34.5042 13.7008 35.9167 15.0468 35.9167 16.9998C35.9167 18.9528 34.5042 20.2987 32.6966 21.4339C30.8666 22.5833 28.1689 23.7969 24.7413 25.3391L13.4652 30.4123C11.3702 31.3549 9.74034 32.0882 8.46772 32.5641C7.2224 33.0297 6.10942 33.3356 5.11979 33.2279C2.71942 32.9669 0.653927 31.3209 0.154028 28.9971C-0.0578451 28.0122 0.238415 26.9104 0.664069 25.7658C1.10479 24.5807 1.80526 23.0591 2.69763 21.1206L2.7217 21.0684C3.41913 19.5533 3.68754 18.9555 3.82449 18.3591C4.0305 17.4619 4.0305 16.5377 3.82449 15.6405C3.68754 15.0441 3.41913 14.4463 2.7217 12.9312L2.69763 12.8789C1.80526 10.9404 1.10479 9.41882 0.664069 8.23373C0.238415 7.08916 -0.0578449 5.98737 0.15403 5.00246C0.65393 2.67864 2.71942 1.03263 5.11979 0.771604C6.10942 0.663988 7.2224 0.969817 8.46772 1.4355C9.74034 1.91139 11.3702 2.64467 13.4652 3.58726ZM7.59208 3.77713C6.36846 3.31956 5.74336 3.21853 5.39005 3.25695C3.90994 3.41791 2.84104 4.399 2.59812 5.52823C2.55292 5.73834 2.58448 6.22542 3.00728 7.36232C3.41106 8.44806 4.07104 9.88382 4.99263 11.8858C5.01282 11.9297 5.03277 11.973 5.0525 12.0158C5.67085 13.3586 6.05926 14.2021 6.26108 15.081C6.55164 16.3464 6.55164 17.6532 6.26107 18.9186C6.05926 19.7974 5.67084 20.6409 5.05249 21.9837C5.03277 22.0266 5.01282 22.0699 4.99263 22.1138C4.07104 24.1157 3.41106 25.5515 3.00728 26.6372C2.58448 27.7741 2.55292 28.2612 2.59812 28.4713C2.84104 29.6005 3.90994 30.5816 5.39005 30.7426C5.74336 30.781 6.36845 30.68 7.59208 30.2224C8.77927 29.7785 10.335 29.0792 12.4846 28.1121L23.6144 23.1047C27.1649 21.5073 29.7019 20.3626 31.367 19.3168C33.0726 18.2457 33.4167 17.5498 33.4167 16.9998C33.4167 16.4497 33.0726 15.7539 31.367 14.6827C29.7019 13.637 27.1649 12.4923 23.6144 10.8949L12.4846 5.88745C10.335 4.92031 8.77928 4.22108 7.59208 3.77713Z" fill="#02040F"/>
</svg>
