<svg width="301" height="89" viewBox="0 0 301 89" fill="none" xmlns="http://www.w3.org/2000/svg">
<path d="M1.888 44.114C1.888 40.0233 2.73367 36.385 4.425 33.199C6.15567 29.9737 8.59433 27.476 11.741 25.706C14.8877 23.8967 18.5063 22.992 22.597 22.992C27.789 22.992 32.155 24.3883 35.695 27.181C39.235 29.9343 41.5163 33.6907 42.539 38.45H30.09C29.3427 36.8767 28.3003 35.677 26.963 34.851C25.665 34.025 24.1507 33.612 22.42 33.612C19.7453 33.612 17.6017 34.5757 15.989 36.503C14.4157 38.391 13.629 40.928 13.629 44.114C13.629 47.3393 14.4157 49.9157 15.989 51.843C17.6017 53.731 19.7453 54.675 22.42 54.675C24.1507 54.675 25.665 54.262 26.963 53.436C28.3003 52.61 29.3427 51.4103 30.09 49.837H42.539C41.5163 54.5963 39.235 58.3723 35.695 61.165C32.155 63.9183 27.789 65.295 22.597 65.295C18.5063 65.295 14.8877 64.41 11.741 62.64C8.59433 60.8307 6.15567 58.333 4.425 55.147C2.73367 51.9217 1.888 48.244 1.888 44.114ZM85.2439 23.405V65H73.6799V48.303H59.5789V65H48.0149V23.405H59.5789V39.04H73.6799V23.405H85.2439ZM118.176 58.215H103.426L101.184 65H89.0296L104.193 23.405H117.527L132.631 65H120.418L118.176 58.215ZM115.285 49.365L110.801 35.913L106.376 49.365H115.285ZM174.927 65H163.363L147.964 41.754V65H136.4V23.405H147.964L163.363 46.946V23.405H174.927V65ZM180.098 44.114C180.098 40.0233 180.944 36.385 182.635 33.199C184.366 29.9737 186.804 27.476 189.951 25.706C193.098 23.8967 196.716 22.992 200.807 22.992C205.999 22.992 210.365 24.3883 213.905 27.181C217.445 29.9343 219.726 33.6907 220.749 38.45H208.3C207.553 36.8767 206.51 35.677 205.173 34.851C203.875 34.025 202.361 33.612 200.63 33.612C197.955 33.612 195.812 34.5757 194.199 36.503C192.626 38.391 191.839 40.928 191.839 44.114C191.839 47.3393 192.626 49.9157 194.199 51.843C195.812 53.731 197.955 54.675 200.63 54.675C202.361 54.675 203.875 54.262 205.173 53.436C206.51 52.61 207.553 51.4103 208.3 49.837H220.749C219.726 54.5963 217.445 58.3723 213.905 61.165C210.365 63.9183 205.999 65.295 200.807 65.295C196.716 65.295 193.098 64.41 189.951 62.64C186.804 60.8307 184.366 58.333 182.635 55.147C180.944 51.9217 180.098 48.244 180.098 44.114ZM237.789 32.668V39.453H251.064V48.244H237.789V55.737H252.834V65H226.225V23.405H252.834V32.668H237.789Z" fill="white"/>
<path d="M270.702 41.999C273.21 41.999 275.377 42.472 277.203 43.418C279.051 44.342 280.459 45.673 281.427 47.411C282.417 49.149 282.912 51.195 282.912 53.549C282.912 55.903 282.417 57.949 281.427 59.687C280.459 61.403 279.051 62.723 277.203 63.647C275.377 64.549 273.21 65 270.702 65H263.541V41.999H270.702ZM270.702 62.525C273.672 62.525 275.938 61.744 277.5 60.182C279.062 58.598 279.843 56.387 279.843 53.549C279.843 50.689 279.051 48.456 277.467 46.85C275.905 45.244 273.65 44.441 270.702 44.441H266.544V62.525H270.702ZM289.414 62.393H300.634V65H285.85V62.624L297.004 44.606H285.982V41.999H300.568V44.375L289.414 62.393Z" fill="white"/>
</svg>
