<svg width="122" height="38" viewBox="0 0 122 38" fill="none" xmlns="http://www.w3.org/2000/svg">
<path d="M0.8 19.15C0.8 17.4167 1.15833 15.875 1.875 14.525C2.60833 13.1583 3.64167 12.1 4.975 11.35C6.30833 10.5833 7.84167 10.2 9.575 10.2C11.775 10.2 13.625 10.7917 15.125 11.975C16.625 13.1417 17.5917 14.7333 18.025 16.75H12.75C12.4333 16.0833 11.9917 15.575 11.425 15.225C10.875 14.875 10.2333 14.7 9.5 14.7C8.36667 14.7 7.45833 15.1083 6.775 15.925C6.10833 16.725 5.775 17.8 5.775 19.15C5.775 20.5167 6.10833 21.6083 6.775 22.425C7.45833 23.225 8.36667 23.625 9.5 23.625C10.2333 23.625 10.875 23.45 11.425 23.1C11.9917 22.75 12.4333 22.2417 12.75 21.575H18.025C17.5917 23.5917 16.625 25.1917 15.125 26.375C13.625 27.5417 11.775 28.125 9.575 28.125C7.84167 28.125 6.30833 27.75 4.975 27C3.64167 26.2333 2.60833 25.175 1.875 23.825C1.15833 22.4583 0.8 20.9 0.8 19.15ZM36.1203 10.375V28H31.2203V20.925H25.2453V28H20.3453V10.375H25.2453V17H31.2203V10.375H36.1203ZM50.0744 25.125H43.8244L42.8744 28H37.7244L44.1494 10.375H49.7994L56.1994 28H51.0244L50.0744 25.125ZM48.8494 21.375L46.9494 15.675L45.0744 21.375H48.8494ZM74.1215 28H69.2215L62.6965 18.15V28H57.7965V10.375H62.6965L69.2215 20.35V10.375H74.1215V28ZM76.3127 19.15C76.3127 17.4167 76.671 15.875 77.3877 14.525C78.121 13.1583 79.1544 12.1 80.4877 11.35C81.821 10.5833 83.3544 10.2 85.0877 10.2C87.2877 10.2 89.1377 10.7917 90.6377 11.975C92.1377 13.1417 93.1044 14.7333 93.5377 16.75H88.2627C87.946 16.0833 87.5044 15.575 86.9377 15.225C86.3877 14.875 85.746 14.7 85.0127 14.7C83.8794 14.7 82.971 15.1083 82.2877 15.925C81.621 16.725 81.2877 17.8 81.2877 19.15C81.2877 20.5167 81.621 21.6083 82.2877 22.425C82.971 23.225 83.8794 23.625 85.0127 23.625C85.746 23.625 86.3877 23.45 86.9377 23.1C87.5044 22.75 87.946 22.2417 88.2627 21.575H93.5377C93.1044 23.5917 92.1377 25.1917 90.6377 26.375C89.1377 27.5417 87.2877 28.125 85.0877 28.125C83.3544 28.125 81.821 27.75 80.4877 27C79.1544 26.2333 78.121 25.175 77.3877 23.825C76.671 22.4583 76.3127 20.9 76.3127 19.15ZM100.758 14.3V17.175H106.383V20.9H100.758V24.075H107.133V28H95.858V10.375H107.133V14.3H100.758Z" fill="#13043F"/>
<path d="M110.94 21.03C111.7 21.03 112.357 21.1733 112.91 21.46C113.47 21.74 113.897 22.1433 114.19 22.67C114.49 23.1967 114.64 23.8167 114.64 24.53C114.64 25.2433 114.49 25.8633 114.19 26.39C113.897 26.91 113.47 27.31 112.91 27.59C112.357 27.8633 111.7 28 110.94 28H108.77V21.03H110.94ZM110.94 27.25C111.84 27.25 112.527 27.0133 113 26.54C113.473 26.06 113.71 25.39 113.71 24.53C113.71 23.6633 113.47 22.9867 112.99 22.5C112.517 22.0133 111.833 21.77 110.94 21.77H109.68V27.25H110.94ZM116.61 27.21H120.01V28H115.53V27.28L118.91 21.82H115.57V21.03H119.99V21.75L116.61 27.21Z" fill="#13043F"/>
</svg>
