<svg width="30" height="30" viewBox="0 0 30 30" fill="none" xmlns="http://www.w3.org/2000/svg">
<path d="M7.5 12.5V10C7.5 5.8625 8.75 2.5 15 2.5C21.25 2.5 22.5 5.8625 22.5 10V12.5" stroke="#808080" stroke-width="2" stroke-linecap="round" stroke-linejoin="round"/>
<path d="M15 23.125C16.7259 23.125 18.125 21.7259 18.125 20C18.125 18.2741 16.7259 16.875 15 16.875C13.2741 16.875 11.875 18.2741 11.875 20C11.875 21.7259 13.2741 23.125 15 23.125Z" stroke="#808080" stroke-width="2" stroke-linecap="round" stroke-linejoin="round"/>
<path d="M21.25 27.5H8.75C3.75 27.5 2.5 26.25 2.5 21.25V18.75C2.5 13.75 3.75 12.5 8.75 12.5H21.25C26.25 12.5 27.5 13.75 27.5 18.75V21.25C27.5 26.25 26.25 27.5 21.25 27.5Z" stroke="#808080" stroke-width="2" stroke-linecap="round" stroke-linejoin="round"/>
</svg>
