<svg width="35" height="40" viewBox="0 0 35 40" fill="none" xmlns="http://www.w3.org/2000/svg">
<path d="M29.1666 24.5078C31.0744 22.1187 32.0833 20 32.0833 20C32.0833 20 26.7803 8.86363 17.5 8.86363C17.0023 8.86363 16.5162 8.89565 16.0416 8.95626C15.5426 9.01999 15.0564 9.11534 14.5833 9.23832M17.5 15.2273C18.0113 15.2273 18.5022 15.323 18.9583 15.4988C20.2014 15.9782 21.1866 17.053 21.626 18.4091C21.7872 18.9067 21.875 19.4422 21.875 20M4.37496 5.68182L30.625 34.3182M17.5 24.7727C16.9886 24.7727 16.4978 24.677 16.0416 24.5011C14.7985 24.0218 13.8133 22.947 13.3739 21.5909C13.291 21.3351 13.2275 21.0692 13.1854 20.7955M6.04769 15.2273C5.59816 15.7753 5.19504 16.3129 4.83964 16.8182C3.57705 18.6131 2.91663 20 2.91663 20C2.91663 20 8.21966 31.1364 17.5 31.1364C17.9976 31.1364 18.4838 31.1043 18.9583 31.0437" stroke="#464646" stroke-width="1.5" stroke-linecap="round" stroke-linejoin="round"/>
</svg>
