<svg width="25" height="28" viewBox="0 0 25 28" fill="none" xmlns="http://www.w3.org/2000/svg">
<path d="M12.5001 17.1704C14.226 17.1704 15.6251 15.7713 15.6251 14.0454C15.6251 12.3195 14.226 10.9204 12.5001 10.9204C10.7742 10.9204 9.37508 12.3195 9.37508 14.0454C9.37508 15.7713 10.7742 17.1704 12.5001 17.1704Z" stroke="#13043F" stroke-width="2" stroke-linecap="round" stroke-linejoin="round"/>
<path d="M20.2084 17.1704C20.0698 17.4846 20.0284 17.8331 20.0897 18.171C20.1509 18.5089 20.312 18.8207 20.5522 19.0662L20.6147 19.1287C20.8084 19.3222 20.962 19.552 21.0669 19.8049C21.1717 20.0578 21.2257 20.3289 21.2257 20.6027C21.2257 20.8764 21.1717 21.1475 21.0669 21.4005C20.962 21.6534 20.8084 21.8831 20.6147 22.0766C20.4212 22.2703 20.1914 22.424 19.9385 22.5288C19.6856 22.6337 19.4145 22.6876 19.1407 22.6876C18.8669 22.6876 18.5958 22.6337 18.3429 22.5288C18.09 22.424 17.8602 22.2703 17.6667 22.0766L17.6042 22.0141C17.3587 21.774 17.0469 21.6129 16.709 21.5516C16.3711 21.4903 16.0226 21.5317 15.7084 21.6704C15.4003 21.8024 15.1376 22.0217 14.9525 22.3011C14.7674 22.5806 14.6681 22.9081 14.6667 23.2433V23.4204C14.6667 23.9729 14.4473 24.5028 14.0566 24.8935C13.6659 25.2842 13.1359 25.5037 12.5834 25.5037C12.0309 25.5037 11.501 25.2842 11.1103 24.8935C10.7196 24.5028 10.5001 23.9729 10.5001 23.4204V23.3266C10.492 22.9818 10.3804 22.6474 10.1798 22.3669C9.97915 22.0864 9.69876 21.8727 9.37508 21.7537C9.0609 21.615 8.71238 21.5737 8.37447 21.6349C8.03656 21.6962 7.72475 21.8573 7.47925 22.0975L7.41675 22.16C7.22326 22.3537 6.99349 22.5073 6.74058 22.6122C6.48767 22.717 6.21657 22.771 5.94279 22.771C5.66901 22.771 5.39791 22.717 5.145 22.6122C4.89208 22.5073 4.66232 22.3537 4.46883 22.16C4.27513 21.9665 4.12147 21.7367 4.01662 21.4838C3.91178 21.2309 3.85782 20.9598 3.85782 20.686C3.85782 20.4122 3.91178 20.1411 4.01662 19.8882C4.12147 19.6353 4.27513 19.4055 4.46883 19.212L4.53133 19.1495C4.77147 18.904 4.93257 18.5922 4.99384 18.2543C5.05511 17.9164 5.01374 17.5679 4.87508 17.2537C4.74304 16.9456 4.52378 16.6829 4.24432 16.4978C3.96485 16.3127 3.63736 16.2134 3.30216 16.212H3.12508C2.57255 16.212 2.04264 15.9925 1.65194 15.6018C1.26124 15.2111 1.04175 14.6812 1.04175 14.1287C1.04175 13.5762 1.26124 13.0463 1.65194 12.6556C2.04264 12.2649 2.57255 12.0454 3.12508 12.0454H3.21883C3.56362 12.0373 3.898 11.9257 4.17852 11.7251C4.45903 11.5244 4.6727 11.2441 4.79175 10.9204C4.93041 10.6062 4.97177 10.2577 4.9105 9.91976C4.84923 9.58184 4.68814 9.27003 4.448 9.02454L4.3855 8.96204C4.1918 8.76855 4.03813 8.53878 3.93329 8.28587C3.82845 8.03296 3.77448 7.76186 3.77448 7.48808C3.77448 7.2143 3.82845 6.9432 3.93329 6.69029C4.03813 6.43737 4.1918 6.2076 4.3855 6.01412C4.57898 5.82042 4.80875 5.66675 5.06166 5.56191C5.31458 5.45707 5.58567 5.40311 5.85946 5.40311C6.13324 5.40311 6.40434 5.45707 6.65725 5.56191C6.91016 5.66675 7.13993 5.82042 7.33341 6.01412L7.39591 6.07662C7.64141 6.31676 7.95322 6.47785 8.29113 6.53912C8.62905 6.60039 8.97756 6.55903 9.29175 6.42037H9.37508C9.68317 6.28832 9.94593 6.06907 10.131 5.7896C10.3161 5.51014 10.4154 5.18265 10.4167 4.84745V4.67037C10.4167 4.11784 10.6362 3.58793 11.0269 3.19723C11.4176 2.80653 11.9475 2.58704 12.5001 2.58704C13.0526 2.58704 13.5825 2.80653 13.9732 3.19723C14.3639 3.58793 14.5834 4.11784 14.5834 4.67037V4.76412C14.5848 5.09931 14.6841 5.4268 14.8692 5.70627C15.0542 5.98574 15.317 6.20499 15.6251 6.33704C15.9393 6.4757 16.2878 6.51706 16.6257 6.45579C16.9636 6.39452 17.2754 6.23343 17.5209 5.99329L17.5834 5.93079C17.7769 5.73709 18.0067 5.58342 18.2596 5.47858C18.5125 5.37374 18.7836 5.31977 19.0574 5.31977C19.3312 5.31977 19.6023 5.37374 19.8552 5.47858C20.1081 5.58342 20.3378 5.73709 20.5313 5.93079C20.725 6.12427 20.8787 6.35404 20.9835 6.60695C21.0884 6.85986 21.1423 7.13096 21.1423 7.40474C21.1423 7.67853 21.0884 7.94962 20.9835 8.20254C20.8787 8.45545 20.725 8.68522 20.5313 8.8787L20.4688 8.9412C20.2287 9.1867 20.0676 9.49851 20.0063 9.83642C19.9451 10.1743 19.9864 10.5229 20.1251 10.837V10.9204C20.2571 11.2285 20.4764 11.4912 20.7558 11.6763C21.0353 11.8614 21.3628 11.9607 21.698 11.962H21.8751C22.4276 11.962 22.9575 12.1815 23.3482 12.5722C23.7389 12.9629 23.9584 13.4928 23.9584 14.0454C23.9584 14.5979 23.7389 15.1278 23.3482 15.5185C22.9575 15.9092 22.4276 16.1287 21.8751 16.1287H21.7813C21.4461 16.13 21.1186 16.2294 20.8392 16.4144C20.5597 16.5995 20.3405 16.8623 20.2084 17.1704Z" stroke="#13043F" stroke-width="2" stroke-linecap="round" stroke-linejoin="round"/>
</svg>
