<svg width="20" height="21" viewBox="0 0 20 21" fill="none" xmlns="http://www.w3.org/2000/svg">
<g clip-path="url(#clip0_25_5092)">
<path d="M6.66659 3.38859H6.00008C5.06666 3.38859 4.5996 3.38859 4.24308 3.57025C3.92948 3.73004 3.6747 3.98482 3.51491 4.29842C3.33325 4.65494 3.33325 5.122 3.33325 6.05542V6.72192M6.66659 3.38859H13.3333M6.66659 3.38859V1.72192M13.3333 3.38859H14.0001C14.9335 3.38859 15.3996 3.38859 15.7561 3.57025C16.0697 3.73004 16.3253 3.98482 16.4851 4.29842C16.6666 4.65459 16.6666 5.12109 16.6666 6.05268V6.72192M13.3333 3.38859V1.72192M3.33325 6.72192V14.0554C3.33325 14.9888 3.33325 15.4553 3.51491 15.8118C3.6747 16.1254 3.92948 16.3807 4.24308 16.5404C4.59925 16.7219 5.06575 16.7219 5.99734 16.7219H14.0025C14.9341 16.7219 15.3999 16.7219 15.7561 16.5404C16.0697 16.3807 16.3253 16.1254 16.4851 15.8118C16.6666 15.4557 16.6666 14.9898 16.6666 14.0582V6.72192M3.33325 6.72192H16.6666M13.3333 13.3886H13.3349L13.3349 13.3903L13.3333 13.3902V13.3886ZM9.99992 13.3886H10.0016L10.0015 13.3903L9.99992 13.3902V13.3886ZM6.66659 13.3886H6.66825L6.66821 13.3903L6.66659 13.3902V13.3886ZM13.3349 10.0553V10.0569L13.3333 10.0569V10.0553H13.3349ZM9.99992 10.0553H10.0016L10.0015 10.0569L9.99992 10.0569V10.0553ZM6.66659 10.0553H6.66825L6.66821 10.0569L6.66659 10.0569V10.0553Z" stroke="black" stroke-width="2" stroke-linecap="round" stroke-linejoin="round"/>
</g>
<defs>
<clipPath id="clip0_25_5092">
<rect width="20" height="20" fill="white" transform="translate(0 0.0552979)"/>
</clipPath>
</defs>
</svg>
