<svg width="35" height="40" viewBox="0 0 35 40" fill="none" xmlns="http://www.w3.org/2000/svg">
<path d="M27.7083 7.27271V16.8182M27.7083 16.8182C26.0975 16.8182 24.7917 18.2427 24.7917 20C24.7917 21.7573 26.0975 23.1818 27.7083 23.1818M27.7083 16.8182C29.3192 16.8182 30.625 18.2427 30.625 20C30.625 21.7573 29.3192 23.1818 27.7083 23.1818M27.7083 23.1818V32.7273M17.5 7.27271V26.3636M17.5 26.3636C15.8892 26.3636 14.5833 27.7882 14.5833 29.5454C14.5833 31.3027 15.8892 32.7273 17.5 32.7273C19.1108 32.7273 20.4167 31.3027 20.4167 29.5454C20.4167 27.7882 19.1108 26.3636 17.5 26.3636ZM7.29167 13.6363V32.7273M7.29167 13.6363C8.9025 13.6363 10.2083 12.2118 10.2083 10.4545C10.2083 8.69725 8.9025 7.27271 7.29167 7.27271C5.68084 7.27271 4.375 8.69725 4.375 10.4545C4.375 12.2118 5.68084 13.6363 7.29167 13.6363Z" stroke="white" stroke-linecap="round"/>
</svg>
