<svg width="24" height="25" viewBox="0 0 24 25" fill="none" xmlns="http://www.w3.org/2000/svg">
<path d="M5 9.97815C5 14.83 9.24448 18.8422 11.1232 20.3805C11.3921 20.6007 11.5281 20.7121 11.7287 20.7685C11.8849 20.8125 12.1148 20.8125 12.271 20.7685C12.472 20.7119 12.6071 20.6016 12.877 20.3807C14.7557 18.8424 18.9999 14.8304 18.9999 9.97859C18.9999 8.14248 18.2625 6.38135 16.9497 5.08302C15.637 3.78469 13.8566 3.0553 12.0001 3.0553C10.1436 3.0553 8.36301 3.7848 7.05025 5.08313C5.7375 6.38146 5 8.14204 5 9.97815Z" stroke="black" stroke-width="2" stroke-linecap="round" stroke-linejoin="round"/>
<path d="M10 9.0553C10 10.1599 10.8954 11.0553 12 11.0553C13.1046 11.0553 14 10.1599 14 9.0553C14 7.95073 13.1046 7.0553 12 7.0553C10.8954 7.0553 10 7.95073 10 9.0553Z" stroke="black" stroke-width="2" stroke-linecap="round" stroke-linejoin="round"/>
</svg>
